<svg width="219" height="236" viewBox="0 0 219 236" fill="none" xmlns="http://www.w3.org/2000/svg">
<g clip-path="url(#clip0_41_940)">
<path d="M138.918 133.899L44.2525 158.313C41.0413 159.137 37.6348 158.652 34.7803 156.964C31.9258 155.276 29.8563 152.523 29.026 149.309L0.396628 37.9633C-0.426419 34.7472 0.0578976 31.3355 1.74333 28.4767C3.42876 25.6178 6.17767 23.5453 9.38697 22.7137L97.458 0L120 10.1066L147.909 118.649C148.732 121.865 148.247 125.277 146.562 128.136C144.876 130.994 142.128 133.067 138.918 133.899Z" fill="#F2F2F2"/>
<path d="M10.2844 26.2048C7.99898 26.797 6.04142 28.2729 4.84119 30.3087C3.64095 32.3446 3.29606 34.7741 3.88217 37.0643L32.5116 148.41C33.1028 150.699 34.5765 152.66 36.6093 153.862C38.6421 155.064 41.0679 155.409 43.3547 154.822L138.02 130.408C140.306 129.815 142.263 128.34 143.464 126.304C144.664 124.268 145.009 121.838 144.423 119.548L116.946 12.6875L97.1361 3.80554L10.2844 26.2048Z" fill="white"/>
<path d="M119.759 10.681L105.109 14.4595C104.039 14.7353 102.904 14.5744 101.953 14.012C101.002 13.4496 100.313 12.5319 100.037 11.4607L97.2509 0.623393C97.2387 0.575948 97.2401 0.526019 97.2549 0.479333C97.2698 0.432647 97.2974 0.391096 97.3348 0.359441C97.3721 0.327787 97.4176 0.307311 97.466 0.300364C97.5145 0.293416 97.5639 0.300277 97.6086 0.32016L119.8 10.1904C119.85 10.2123 119.891 10.2491 119.918 10.2957C119.946 10.3423 119.958 10.3962 119.954 10.4502C119.949 10.5041 119.928 10.5553 119.893 10.5967C119.859 10.638 119.812 10.6675 119.759 10.681Z" fill="#F2F2F2"/>
<path d="M112.051 105.768L68.9515 116.884C68.6867 116.952 68.4111 116.967 68.1403 116.929C67.8696 116.891 67.6091 116.799 67.3736 116.66C67.1382 116.521 66.9324 116.336 66.7681 116.117C66.6037 115.899 66.4841 115.649 66.4159 115.384C66.3477 115.119 66.3323 114.843 66.3707 114.572C66.409 114.301 66.5003 114.04 66.6393 113.804C66.7783 113.568 66.9624 113.362 67.1809 113.198C67.3995 113.033 67.6482 112.913 67.913 112.845L111.013 101.729C111.278 101.661 111.553 101.646 111.824 101.684C112.095 101.722 112.355 101.814 112.591 101.953C112.826 102.092 113.032 102.277 113.196 102.495C113.361 102.714 113.48 102.963 113.549 103.229C113.617 103.494 113.632 103.77 113.594 104.041C113.555 104.312 113.464 104.573 113.325 104.809C113.186 105.045 113.002 105.251 112.784 105.415C112.565 105.58 112.316 105.7 112.051 105.768Z" fill="#CCCCCC"/>
<path d="M122.121 110.439L70.7039 123.699C70.1692 123.837 69.6016 123.757 69.1261 123.475C68.6505 123.194 68.306 122.735 68.1683 122.2C68.0306 121.664 68.111 121.096 68.3918 120.62C68.6725 120.143 69.1307 119.798 69.6655 119.66L121.083 106.4C121.618 106.262 122.185 106.343 122.66 106.624C123.135 106.906 123.479 107.364 123.617 107.9C123.754 108.435 123.674 109.003 123.394 109.479C123.113 109.955 122.656 110.3 122.121 110.439Z" fill="#CCCCCC"/>
<path d="M51.3607 130.271C55.4252 130.271 58.72 126.971 58.72 122.901C58.72 118.83 55.4252 115.53 51.3607 115.53C47.2963 115.53 44.0015 118.83 44.0015 122.901C44.0015 126.971 47.2963 130.271 51.3607 130.271Z" fill="#E6E6E6"/>
<path d="M107.469 86.4791L50.2277 101.236C48.5734 101.661 46.8186 101.411 45.3481 100.541C43.8777 99.6713 42.8117 98.2529 42.3842 96.5971L30.3886 49.9263C29.9647 48.2695 30.2144 46.512 31.0828 45.0393C31.9511 43.5667 33.3673 42.4991 35.0207 42.0709L92.2617 27.3138C93.916 26.8893 95.6709 27.1393 97.1413 28.009C98.6118 28.8787 99.6777 30.2971 100.105 31.9529L112.101 78.6237C112.525 80.2805 112.275 82.038 111.407 83.5107C110.538 84.9833 109.122 86.0509 107.469 86.4791Z" fill="white"/>
<path d="M107.469 86.4791L50.2277 101.236C48.5734 101.661 46.8186 101.411 45.3481 100.541C43.8777 99.6713 42.8117 98.2529 42.3842 96.5971L30.3886 49.9263C29.9647 48.2695 30.2144 46.512 31.0828 45.0393C31.9511 43.5667 33.3673 42.4991 35.0207 42.0709L92.2617 27.3138C93.916 26.8893 95.6709 27.1393 97.1413 28.009C98.6118 28.8787 99.6777 30.2971 100.105 31.9529L112.101 78.6237C112.525 80.2805 112.275 82.038 111.407 83.5107C110.538 84.9833 109.122 86.0509 107.469 86.4791ZM35.2096 42.8059C33.7508 43.1837 32.5012 44.1257 31.735 45.4251C30.9687 46.7245 30.7485 48.2753 31.1224 49.7371L43.118 96.4079C43.4953 97.8689 44.4358 99.1204 45.7333 99.8878C47.0307 100.655 48.5791 100.876 50.0388 100.501L107.28 85.7442C108.739 85.3663 109.988 84.4243 110.755 83.1249C111.521 81.8255 111.741 80.2748 111.367 78.8129L99.3714 32.1421C98.9941 30.6811 98.0536 29.4296 96.7561 28.6622C95.4587 27.8948 93.9103 27.6742 92.4506 28.0488L35.2096 42.8059Z" fill="#E6E6E6"/>
<path d="M89.3578 43.0062L60.469 50.454C60.2164 50.5246 59.9465 50.4965 59.7138 50.3755C59.4811 50.2544 59.3029 50.0494 59.2154 49.8018C59.1747 49.6725 59.1606 49.5362 59.1742 49.4013C59.1878 49.2664 59.2287 49.1357 59.2944 49.0171C59.3601 48.8985 59.4492 48.7946 59.5563 48.7116C59.6634 48.6287 59.7863 48.5685 59.9174 48.5347L89.3245 40.9534C90.5124 41.5562 90.2001 42.7891 89.3578 43.0062Z" fill="#F2F2F2"/>
<path d="M90.6622 48.0812L61.7734 55.5289C61.5208 55.5995 61.2509 55.5715 61.0182 55.4504C60.7855 55.3293 60.6074 55.1243 60.5198 54.8768C60.4791 54.7475 60.4651 54.6112 60.4787 54.4763C60.4922 54.3413 60.5331 54.2106 60.5988 54.092C60.6645 53.9735 60.7536 53.8695 60.8607 53.7866C60.9679 53.7037 61.0907 53.6434 61.2219 53.6096L90.6289 46.0283C91.8168 46.6311 91.5046 47.864 90.6622 48.0812Z" fill="#F2F2F2"/>
<path d="M56.271 60.0287L47.4544 62.3017C47.1664 62.3756 46.861 62.3321 46.605 62.1807C46.349 62.0293 46.1635 61.7824 46.0891 61.4942L43.4109 51.0741C43.3371 50.7857 43.3805 50.4798 43.5317 50.2234C43.6828 49.9671 43.9294 49.7813 44.2172 49.7068L53.0337 47.4338C53.3217 47.36 53.6271 47.4035 53.883 47.5549C54.139 47.7063 54.3245 47.9531 54.399 48.2413L57.0772 58.6614C57.151 58.9498 57.1076 59.2557 56.9564 59.512C56.8053 59.7684 56.5587 59.9542 56.271 60.0287Z" fill="#E6E6E6"/>
<path d="M93.249 58.4939L49.1594 69.8605C48.9068 69.9311 48.6369 69.903 48.4042 69.782C48.1715 69.6609 47.9934 69.4559 47.9058 69.2083C47.8651 69.079 47.8511 68.9427 47.8646 68.8078C47.8782 68.6729 47.9191 68.5422 47.9848 68.4236C48.0505 68.305 48.1396 68.2011 48.2467 68.1182C48.3539 68.0352 48.4767 67.975 48.6078 67.9412L93.2161 56.4409C94.404 57.0437 94.0914 58.2767 93.249 58.4939Z" fill="#F2F2F2"/>
<path d="M94.5537 63.5705L50.4641 74.9371C50.2115 75.0077 49.9416 74.9797 49.7089 74.8586C49.4762 74.7376 49.2981 74.5325 49.2105 74.285C49.1698 74.1557 49.1558 74.0194 49.1693 73.8845C49.1829 73.7496 49.2238 73.6188 49.2895 73.5002C49.3552 73.3817 49.4443 73.2777 49.5514 73.1948C49.6585 73.1119 49.7814 73.0517 49.9125 73.0179L94.5208 61.5176C95.7087 62.1204 95.3961 63.3533 94.5537 63.5705Z" fill="#F2F2F2"/>
<path d="M95.8577 68.6435L51.768 80.0101C51.5155 80.0807 51.2455 80.0527 51.0128 79.9316C50.7801 79.8106 50.602 79.6055 50.5145 79.358C50.4737 79.2287 50.4597 79.0924 50.4733 78.9575C50.4869 78.8226 50.5277 78.6918 50.5934 78.5732C50.6591 78.4547 50.7483 78.3508 50.8554 78.2678C50.9625 78.1849 51.0854 78.1247 51.2165 78.0909L95.8247 66.5906C97.0126 67.1934 96.7 68.4264 95.8577 68.6435Z" fill="#F2F2F2"/>
<path d="M97.1623 73.7197L53.0727 85.0863C52.8201 85.1569 52.5502 85.1288 52.3175 85.0078C52.0848 84.8867 51.9067 84.6817 51.8192 84.4342C51.7784 84.3048 51.7644 84.1686 51.778 84.0336C51.7915 83.8987 51.8324 83.768 51.8981 83.6494C51.9638 83.5308 52.0529 83.4269 52.1601 83.344C52.2672 83.261 52.3901 83.2008 52.5212 83.167L97.1294 71.6667C98.3173 72.2696 98.0047 73.5025 97.1623 73.7197Z" fill="#F2F2F2"/>
<path d="M98.4666 78.7932L54.3769 90.1598C54.1243 90.2304 53.8544 90.2023 53.6217 90.0813C53.389 89.9602 53.2109 89.7552 53.1233 89.5076C53.0826 89.3783 53.0686 89.2421 53.0822 89.1071C53.0958 88.9722 53.1366 88.8415 53.2023 88.7229C53.268 88.6043 53.3571 88.5004 53.4643 88.4175C53.5714 88.3345 53.6943 88.2743 53.8254 88.2405L98.4336 76.7402C99.6215 77.343 99.3089 78.576 98.4666 78.7932Z" fill="#F2F2F2"/>
<path d="M51.9035 125.484C51.7433 125.526 51.5738 125.514 51.4208 125.451L51.4113 125.447L49.4065 124.596C49.3134 124.556 49.2291 124.499 49.1582 124.427C49.0873 124.355 49.0314 124.269 48.9935 124.175C48.9557 124.082 48.9366 123.981 48.9375 123.88C48.9384 123.779 48.9592 123.679 48.9988 123.586C49.0383 123.493 49.0958 123.408 49.1679 123.337C49.2401 123.267 49.3254 123.211 49.4192 123.173C49.5129 123.135 49.6132 123.116 49.7142 123.117C49.8152 123.118 49.915 123.139 50.008 123.179L51.3071 123.732L53.0094 119.722C53.0489 119.629 53.1062 119.545 53.1782 119.474C53.2502 119.403 53.3355 119.347 53.429 119.309C53.5226 119.271 53.6227 119.253 53.7236 119.253C53.8245 119.254 53.9242 119.275 54.017 119.315L54.007 119.341L54.0177 119.315C54.2051 119.395 54.3531 119.546 54.4293 119.735C54.5054 119.925 54.5035 120.136 54.424 120.324L52.4212 125.04C52.3748 125.149 52.304 125.245 52.2143 125.322C52.1246 125.399 52.0184 125.454 51.9039 125.483L51.9035 125.484Z" fill="white"/>
<path d="M175.228 176.33H77.4741C74.1592 176.326 70.981 175.005 68.637 172.658C66.293 170.31 64.9744 167.127 64.9707 163.807V48.8288C64.9744 45.5088 66.293 42.3259 68.637 39.9783C70.981 37.6307 74.1592 36.3101 77.4741 36.3064H168.418L187.732 51.7237V163.807C187.728 167.127 186.409 170.31 184.065 172.658C181.721 175.005 178.543 176.326 175.228 176.33Z" fill="#E6E6E6"/>
<path d="M77.474 39.9114C75.1134 39.914 72.8502 40.8544 71.1809 42.5262C69.5117 44.198 68.5727 46.4646 68.5701 48.8288V163.807C68.5727 166.171 69.5117 168.438 71.1809 170.11C72.8502 171.782 75.1134 172.722 77.474 172.725H175.228C177.589 172.722 179.852 171.782 181.521 170.11C183.191 168.438 184.129 166.171 184.132 163.807V53.4604L167.159 39.9114H77.474Z" fill="white"/>
<path d="M156.215 73.344H111.709C111.157 73.344 110.627 73.1243 110.237 72.7332C109.846 72.3421 109.627 71.8117 109.627 71.2586C109.627 70.7056 109.846 70.1752 110.237 69.7841C110.627 69.393 111.157 69.1733 111.709 69.1733H156.215C156.767 69.1733 157.297 69.393 157.687 69.7841C158.078 70.1752 158.297 70.7056 158.297 71.2586C158.297 71.8117 158.078 72.3421 157.687 72.7332C157.297 73.1243 156.767 73.344 156.215 73.344Z" fill="#00BFA6"/>
<path d="M164.804 80.3821H111.709C111.157 80.3813 110.628 80.1613 110.238 79.7703C109.848 79.3793 109.629 78.8493 109.629 78.2967C109.629 77.7442 109.848 77.2142 110.238 76.8232C110.628 76.4322 111.157 76.2122 111.709 76.2114H164.804C165.077 76.2111 165.348 76.2647 165.601 76.3693C165.854 76.474 166.084 76.6275 166.278 76.8212C166.471 77.0149 166.625 77.2449 166.73 77.4981C166.835 77.7513 166.889 78.0226 166.889 78.2967C166.889 78.5708 166.835 78.8422 166.73 79.0954C166.625 79.3486 166.471 79.5786 166.278 79.7723C166.084 79.966 165.854 80.1195 165.601 80.2241C165.348 80.3288 165.077 80.3824 164.804 80.3821Z" fill="#00BFA6"/>
<path d="M156.215 100.713H111.71C111.158 100.713 110.629 100.932 110.238 101.323C109.848 101.714 109.628 102.245 109.628 102.798C109.628 103.351 109.848 103.881 110.238 104.272C110.629 104.663 111.158 104.883 111.71 104.883H156.215C156.767 104.883 157.297 104.663 157.687 104.272C158.078 103.881 158.297 103.351 158.297 102.798C158.297 102.245 158.078 101.714 157.687 101.323C157.297 100.932 156.767 100.713 156.215 100.713Z" fill="#CCCCCC"/>
<path d="M164.805 107.752H111.711C111.158 107.752 110.629 107.971 110.238 108.362C109.848 108.753 109.629 109.284 109.629 109.837C109.629 110.39 109.848 110.92 110.238 111.311C110.629 111.702 111.158 111.922 111.711 111.922H164.805C165.357 111.922 165.887 111.702 166.277 111.311C166.667 110.92 166.887 110.39 166.887 109.837C166.887 109.284 166.667 108.753 166.277 108.362C165.887 107.971 165.357 107.752 164.805 107.752Z" fill="#CCCCCC"/>
<path d="M156.215 136.425H111.709C111.157 136.425 110.627 136.205 110.237 135.814C109.846 135.423 109.627 134.893 109.627 134.339C109.627 133.786 109.846 133.256 110.237 132.865C110.627 132.474 111.157 132.254 111.709 132.254H156.215C156.767 132.254 157.297 132.474 157.687 132.865C158.078 133.256 158.297 133.786 158.297 134.339C158.297 134.893 158.078 135.423 157.687 135.814C157.297 136.205 156.767 136.425 156.215 136.425Z" fill="#CCCCCC"/>
<path d="M164.804 143.463H111.709C111.157 143.462 110.628 143.242 110.238 142.851C109.848 142.46 109.629 141.93 109.629 141.377C109.629 140.825 109.848 140.295 110.238 139.904C110.628 139.513 111.157 139.293 111.709 139.292H164.804C165.077 139.292 165.348 139.345 165.601 139.45C165.854 139.555 166.084 139.708 166.278 139.902C166.471 140.095 166.625 140.325 166.73 140.579C166.835 140.832 166.889 141.103 166.889 141.377C166.889 141.651 166.835 141.923 166.73 142.176C166.625 142.429 166.471 142.659 166.278 142.853C166.084 143.047 165.854 143.2 165.601 143.305C165.348 143.409 165.077 143.463 164.804 143.463Z" fill="#CCCCCC"/>
<path d="M93.1754 82.1481C97.2398 82.1481 100.535 78.8482 100.535 74.7777C100.535 70.7071 97.2398 67.4072 93.1754 67.4072C89.111 67.4072 85.8162 70.7071 85.8162 74.7777C85.8162 78.8482 89.111 82.1481 93.1754 82.1481Z" fill="#00BFA6"/>
<path d="M92.4462 77.5892C92.2807 77.5895 92.1195 77.5358 91.9871 77.4364L91.9788 77.4302L90.2493 76.1052C90.169 76.0438 90.1015 75.9671 90.0508 75.8795C90.0001 75.792 89.9671 75.6952 89.9538 75.5949C89.9404 75.4946 89.9469 75.3926 89.973 75.2948C89.9991 75.197 90.0441 75.1053 90.1056 75.0249C90.1671 74.9446 90.2439 74.8772 90.3314 74.8266C90.4189 74.776 90.5156 74.7432 90.6158 74.73C90.716 74.7169 90.8178 74.7237 90.9154 74.75C91.013 74.7763 91.1045 74.8216 91.1845 74.8834L92.3048 75.7437L94.952 72.2849C95.0134 72.2047 95.0899 72.1374 95.1773 72.0869C95.2646 72.0363 95.3611 72.0035 95.4611 71.9903C95.5611 71.977 95.6628 71.9837 95.7603 72.0098C95.8577 72.0359 95.9491 72.081 96.0292 72.1424L96.0129 72.1655L96.0298 72.1426C96.1914 72.2669 96.297 72.4504 96.3237 72.6527C96.3503 72.855 96.2958 73.0596 96.1719 73.2216L93.0582 77.2881C92.9862 77.3818 92.8936 77.4576 92.7876 77.5097C92.6816 77.5617 92.565 77.5886 92.4469 77.5883L92.4462 77.5892Z" fill="white"/>
<path d="M101.291 106.317C101.292 107.285 101.101 108.244 100.732 109.138C100.362 110.033 99.8204 110.846 99.1371 111.53C98.4538 112.215 97.6426 112.758 96.7496 113.129C95.8567 113.499 94.8997 113.69 93.9331 113.69C93.8699 113.692 93.8066 113.689 93.7437 113.683C92.2966 113.645 90.8927 113.182 89.7075 112.349C88.5224 111.517 87.6086 110.353 87.0806 109.004C86.5526 107.654 86.4337 106.178 86.739 104.761C87.0442 103.344 87.76 102.048 88.7967 101.037C89.8335 100.025 91.1451 99.3418 92.5675 99.0729C93.9898 98.8041 95.4598 98.9613 96.7934 99.5249C98.127 100.089 99.2651 101.034 100.065 102.242C100.865 103.45 101.292 104.868 101.291 106.317Z" fill="#CCCCCC"/>
<path d="M93.1754 145.229C97.2398 145.229 100.535 141.929 100.535 137.858C100.535 133.788 97.2398 130.488 93.1754 130.488C89.111 130.488 85.8162 133.788 85.8162 137.858C85.8162 141.929 89.111 145.229 93.1754 145.229Z" fill="#CCCCCC"/>
<path d="M187.356 52.2198H172.227C171.122 52.2198 170.063 51.7804 169.282 50.9983C168.501 50.2161 168.063 49.1553 168.063 48.0492V36.8583C168.062 36.8093 168.076 36.7613 168.102 36.7198C168.128 36.6783 168.165 36.645 168.209 36.6237C168.254 36.6023 168.303 36.5939 168.351 36.5992C168.4 36.6046 168.446 36.6236 168.484 36.654L187.517 51.7548C187.56 51.7884 187.59 51.8344 187.606 51.8864C187.621 51.9383 187.619 51.9937 187.601 52.0448C187.584 52.0959 187.55 52.1403 187.506 52.1716C187.462 52.203 187.41 52.2198 187.356 52.2198Z" fill="#CCCCCC"/>
<path d="M101.291 106.317C101.292 107.285 101.101 108.244 100.732 109.138C100.362 110.033 99.8203 110.846 99.1371 111.53C98.4538 112.215 97.6425 112.758 96.7496 113.129C95.8567 113.499 94.8996 113.69 93.9331 113.69C93.8698 113.692 93.8066 113.689 93.7436 113.683C92.7929 111.308 92.4264 108.739 92.675 106.192C92.9236 103.645 93.78 101.196 95.1721 99.0505C96.884 99.3444 98.437 100.235 99.5567 101.565C100.676 102.894 101.291 104.578 101.291 106.317Z" fill="#00BFA6"/>
<path d="M109.627 102.8C109.628 102.246 109.848 101.716 110.238 101.325C110.629 100.934 111.158 100.714 111.711 100.713H122.801C123.449 102.032 123.909 103.436 124.169 104.883H111.711C111.159 104.883 110.629 104.663 110.239 104.273C109.848 103.882 109.628 103.353 109.627 102.8Z" fill="#00BFA6"/>
<path d="M124.426 107.752C124.427 109.16 124.241 110.563 123.873 111.922H111.71C111.158 111.922 110.629 111.702 110.238 111.311C109.848 110.92 109.628 110.39 109.628 109.837C109.628 109.284 109.848 108.753 110.238 108.362C110.629 107.971 111.158 107.752 111.71 107.752H124.426Z" fill="#00BFA6"/>
<path d="M151.866 133.471C151.552 133.986 151.047 134.356 150.461 134.498C149.875 134.64 149.256 134.543 148.742 134.229L122.217 118.026C121.962 117.87 121.741 117.666 121.565 117.424C121.389 117.183 121.262 116.909 121.192 116.618C121.121 116.327 121.109 116.026 121.155 115.73C121.201 115.435 121.305 115.152 121.46 114.896C121.616 114.641 121.82 114.419 122.061 114.243C122.302 114.067 122.576 113.94 122.866 113.869C123.156 113.799 123.457 113.786 123.752 113.832C124.047 113.879 124.33 113.983 124.585 114.138L151.109 130.342C151.624 130.656 151.993 131.162 152.135 131.749C152.277 132.336 152.18 132.955 151.866 133.471Z" fill="#3F3D56"/>
<path d="M125.342 117.268C123.469 120.343 120.727 122.793 117.464 124.308C114.2 125.823 110.561 126.335 107.008 125.779C103.454 125.223 100.144 123.623 97.4979 121.184C94.8515 118.744 92.9869 115.573 92.14 112.071C91.293 108.57 91.5018 104.896 92.7398 101.514C93.9778 98.1314 96.1895 95.1927 99.0952 93.0692C102.001 90.9457 105.47 89.7328 109.064 89.5839C112.658 89.4351 116.215 90.3569 119.286 92.2328C123.4 94.7521 126.347 98.8028 127.483 103.496C128.618 108.189 127.848 113.142 125.342 117.268ZM98.1707 100.669C96.7658 102.976 96.0755 105.648 96.187 108.347C96.2985 111.047 97.2068 113.653 98.797 115.835C100.387 118.018 102.588 119.679 105.121 120.609C107.654 121.539 110.405 121.696 113.027 121.059C115.649 120.423 118.024 119.023 119.851 117.035C121.678 115.047 122.876 112.561 123.292 109.892C123.709 107.222 123.325 104.489 122.191 102.038C121.056 99.5866 119.221 97.5272 116.918 96.1203C113.829 94.2378 110.12 93.6595 106.605 94.5122C103.091 95.365 100.057 97.5792 98.1707 100.669Z" fill="#3F3D56"/>
<path d="M183.612 110.703C188.752 110.703 192.918 106.53 192.918 101.383C192.918 96.2357 188.752 92.063 183.612 92.063C178.473 92.063 174.306 96.2357 174.306 101.383C174.306 106.53 178.473 110.703 183.612 110.703Z" fill="#A0616A"/>
<path d="M183.011 153.632C182.831 153.072 182.772 152.481 182.837 151.896C182.902 151.311 183.089 150.747 183.387 150.24C183.684 149.733 184.086 149.295 184.564 148.954C185.043 148.613 185.588 148.378 186.164 148.262C186.346 148.227 186.531 148.204 186.717 148.194L196.519 132.437L187.565 123.912C187.223 123.586 186.949 123.196 186.758 122.763C186.568 122.331 186.464 121.865 186.455 121.392C186.445 120.92 186.529 120.45 186.701 120.01C186.874 119.57 187.132 119.168 187.46 118.828C187.788 118.489 188.181 118.218 188.614 118.031C189.048 117.844 189.514 117.745 189.986 117.739C190.458 117.734 190.926 117.822 191.364 117.999C191.802 118.175 192.2 118.437 192.537 118.769L204.9 130.978L204.925 131.009C205.307 131.591 205.492 132.282 205.451 132.978C205.41 133.674 205.147 134.339 204.699 134.873L190.964 151.142C191.005 151.273 191.04 151.405 191.067 151.539C191.182 152.116 191.173 152.71 191.043 153.284C190.912 153.857 190.662 154.397 190.309 154.867C189.956 155.337 189.507 155.726 188.993 156.011C188.479 156.295 187.91 156.467 187.325 156.516C187.207 156.527 187.089 156.532 186.972 156.532C186.091 156.528 185.234 156.246 184.522 155.725C183.811 155.204 183.282 154.472 183.011 153.632Z" fill="#A0616A"/>
<path d="M168.285 231.095L163.64 231.095L161.43 213.151L168.286 213.151L168.285 231.095Z" fill="#A0616A"/>
<path d="M169.47 235.605L154.492 235.604V235.415C154.492 234.648 154.643 233.889 154.936 233.18C155.229 232.472 155.658 231.828 156.199 231.286C156.741 230.744 157.383 230.314 158.091 230.021C158.798 229.727 159.556 229.576 160.322 229.576L169.47 229.577L169.47 235.605Z" fill="#2F2E41"/>
<path d="M214.455 224.663L210.464 227.043L199.399 212.758L205.289 209.245L214.455 224.663Z" fill="#A0616A"/>
<path d="M217.777 227.931L204.907 235.605L204.811 235.442C204.419 234.783 204.161 234.054 204.05 233.295C203.94 232.536 203.98 231.763 204.169 231.02C204.357 230.277 204.689 229.578 205.147 228.963C205.605 228.349 206.179 227.831 206.837 227.438L214.697 222.751L217.777 227.931Z" fill="#2F2E41"/>
<path d="M160.844 223.193C157.733 186.496 155.881 152.405 167.257 138.498L167.345 138.391L186.489 146.06L186.52 146.129C186.585 146.269 192.951 160.295 191.466 169.729L196.188 191.483L211.585 217.303C211.709 217.51 211.787 217.742 211.815 217.983C211.842 218.223 211.819 218.467 211.745 218.698C211.672 218.928 211.55 219.141 211.389 219.321C211.227 219.501 211.029 219.644 210.808 219.742L204.117 222.69C203.739 222.855 203.315 222.877 202.922 222.754C202.529 222.631 202.193 222.371 201.977 222.02L185.228 194.668L175.768 173.689C175.717 173.575 175.629 173.481 175.519 173.422C175.409 173.363 175.283 173.341 175.16 173.361C175.037 173.381 174.923 173.441 174.838 173.532C174.752 173.622 174.698 173.739 174.685 173.863L169.441 223.23C169.397 223.65 169.199 224.038 168.886 224.32C168.573 224.602 168.167 224.758 167.746 224.757H162.544C162.117 224.755 161.707 224.593 161.392 224.304C161.078 224.015 160.883 223.619 160.844 223.193Z" fill="#2F2E41"/>
<path d="M167.321 138.789L167.23 138.746L167.216 138.645C166.501 133.633 167.347 128.063 169.732 122.091C170.907 119.168 173.092 116.766 175.887 115.321C178.683 113.876 181.904 113.485 184.964 114.22C186.726 114.655 188.379 115.451 189.818 116.559C191.257 117.668 192.45 119.063 193.322 120.657C194.184 122.235 194.708 123.974 194.863 125.766C195.018 127.557 194.799 129.361 194.221 131.064C191.215 139.867 187.316 148.104 187.277 148.187L187.195 148.359L167.321 138.789Z" fill="#00BFA6"/>
<path d="M146.434 126.304C146.895 125.939 147.428 125.676 147.997 125.532C148.567 125.388 149.16 125.367 149.739 125.468C150.317 125.57 150.868 125.793 151.354 126.123C151.84 126.452 152.252 126.881 152.561 127.381C152.658 127.54 152.744 127.705 152.818 127.876L170.988 131.554L175.826 120.169C176.011 119.733 176.28 119.339 176.617 119.009C176.955 118.679 177.355 118.419 177.793 118.244C178.232 118.069 178.701 117.983 179.173 117.991C179.645 117.999 180.111 118.1 180.543 118.289C180.976 118.478 181.367 118.751 181.694 119.093C182.02 119.434 182.276 119.837 182.447 120.278C182.617 120.718 182.699 121.189 182.687 121.661C182.675 122.134 182.569 122.6 182.376 123.031L175.287 138.904L175.268 138.938C174.857 139.501 174.275 139.916 173.61 140.122C172.945 140.328 172.231 140.313 171.574 140.08L151.549 132.893C151.441 132.977 151.329 133.056 151.213 133.128C150.714 133.438 150.155 133.638 149.573 133.717C148.991 133.795 148.399 133.749 147.836 133.582C147.273 133.415 146.751 133.131 146.305 132.749C145.859 132.366 145.499 131.893 145.248 131.361C145.197 131.254 145.151 131.145 145.11 131.035C144.805 130.207 144.769 129.304 145.007 128.454C145.244 127.605 145.744 126.852 146.434 126.304Z" fill="#A0616A"/>
<path d="M217.231 111.364C216.334 109.773 215.028 108.317 213.302 107.729C211.072 106.969 208.658 107.778 206.366 108.318C204.599 108.733 202.754 108.988 200.974 108.637C199.194 108.286 197.476 107.248 196.666 105.623C195.475 103.23 196.479 100.378 196.406 97.7059C196.369 96.2512 196.002 94.824 195.334 93.5319C194.666 92.2397 193.714 91.1163 192.549 90.2463C191.385 89.3763 190.038 88.7825 188.611 88.5095C187.184 88.2365 185.713 88.2916 184.311 88.6705C182.116 88.0361 180.128 87.9774 178.77 89.6675C177.062 89.6675 175.424 90.3471 174.216 91.5569C173.008 92.7667 172.329 94.4075 172.329 96.1184H178.488C178.196 97.6912 178.53 99.3161 179.418 100.646C180.505 102.246 182.396 103.403 182.76 105.303C183.113 107.145 181.862 108.893 180.551 110.231C179.24 111.57 177.719 112.897 177.309 114.727C177.059 116.116 177.343 117.549 178.106 118.736C178.868 119.908 179.813 120.951 180.905 121.823C185.825 126.044 191.672 129.04 197.969 130.566C202.404 131.635 207.254 131.912 211.371 129.945C213.018 129.158 214.486 128.041 215.683 126.662C216.88 125.283 217.782 123.672 218.331 121.93C218.881 120.187 219.067 118.35 218.877 116.532C218.688 114.715 218.128 112.956 217.231 111.364Z" fill="#2F2E41"/>
<path d="M218.621 236H146.632C146.531 236 146.435 235.96 146.364 235.889C146.293 235.818 146.253 235.721 146.253 235.62C146.253 235.52 146.293 235.423 146.364 235.352C146.435 235.281 146.531 235.241 146.632 235.241H218.621C218.722 235.241 218.818 235.281 218.889 235.352C218.96 235.423 219 235.52 219 235.62C219 235.721 218.96 235.818 218.889 235.889C218.818 235.96 218.722 236 218.621 236Z" fill="#CCCCCC"/>
</g>
<defs>
<clipPath id="clip0_41_940">
<rect width="219" height="236" fill="white"/>
</clipPath>
</defs>
</svg>
